<svg width="22" height="22" viewBox="0 0 22 22" fill="none" xmlns="http://www.w3.org/2000/svg">
<path fill-rule="evenodd" clip-rule="evenodd" d="M11 22C17.0751 22 22 17.0751 22 11C22 4.92487 17.0751 0 11 0C4.92487 0 0 4.92487 0 11C0 17.0751 4.92487 22 11 22ZM11 20C15.9706 20 20 15.9706 20 11C20 6.02944 15.9706 2 11 2C6.02944 2 2 6.02944 2 11C2 15.9706 6.02944 20 11 20ZM12.75 6.25333C12.75 6.66763 12.6077 7.02127 12.3216 7.31202C12.0363 7.60425 11.6922 7.75 11.2901 7.75C10.8867 7.75 10.542 7.60425 10.2533 7.31202C9.96521 7.02127 9.82085 6.66763 9.82085 6.25333C9.82085 5.83977 9.96521 5.48539 10.2533 5.19094C10.5413 4.89649 10.8867 4.75 11.2901 4.75C11.6922 4.75 12.0363 4.89723 12.3216 5.19094C12.6077 5.48539 12.75 5.83977 12.75 6.25333ZM12.6069 16.1166C12.1774 16.323 11.834 16.4799 11.5784 16.5881C11.3227 16.6963 11.0253 16.75 10.6866 16.75C10.1664 16.75 9.76175 16.5952 9.47311 16.2871C9.18448 15.9783 9.04016 15.5864 9.04016 15.1113C9.04016 14.9272 9.05076 14.738 9.07256 14.5453C9.09435 14.3525 9.12911 14.1347 9.17682 13.8918L9.71403 11.5803C9.76175 11.3589 9.80239 11.149 9.83479 10.9505C9.86777 10.7535 9.88368 10.5722 9.88368 10.4088C9.88368 10.1136 9.83361 9.90724 9.73347 9.79117C9.63333 9.67509 9.44248 9.61634 9.15915 9.61634C9.02013 9.61634 8.87758 9.64356 8.73209 9.69587C8.586 9.74818 8.5 9.1334 8.5 9.1334C8.85166 8.95929 9.18801 8.81025 9.50963 8.68629C9.83125 8.56234 10.1352 8.5 10.4227 8.5C10.9393 8.5 11.338 8.6519 11.6178 8.95571C11.8976 9.25951 12.0378 9.6536 12.0378 10.1394C12.0378 10.2397 12.0284 10.4167 12.009 10.6696C11.9895 10.9233 11.9536 11.1554 11.9012 11.3668L11.3663 13.6697C11.3227 13.8545 11.2833 14.0659 11.2491 14.3038C11.2138 14.5403 11.1967 14.7208 11.1967 14.8419C11.1967 15.1479 11.2526 15.3564 11.3651 15.4674C11.4782 15.5785 11.6732 15.6337 11.9501 15.6337C12.0802 15.6337 12.2281 15.6057 12.3924 15.5505C12.5568 15.4954 12.6069 16.1166 12.6069 16.1166Z" fill="#989898"/>
</svg>
